<mxfile host="app.diagrams.net" agent="Mozilla/5.0 (Windows NT 10.0; Win64; x64) AppleWebKit/537.36 (KHTML, like Gecko) Chrome/136.0.0.0 Safari/537.36" version="26.2.14">
  <diagram id="piDafpqhtRUU5qUU-vj8" name="Page-1">
    <mxGraphModel dx="1699" dy="431" grid="1" gridSize="10" guides="1" tooltips="1" connect="1" arrows="1" fold="1" page="1" pageScale="1" pageWidth="827" pageHeight="1169" math="0" shadow="0" adaptiveColors="simple">
      <root>
        <mxCell id="0" />
        <mxCell id="1" parent="0" />
        <mxCell id="wqMbm9Z1YDFRMYxHK1fr-3" value="" style="verticalLabelPosition=bottom;verticalAlign=top;html=1;shadow=0;dashed=0;strokeWidth=1;shape=mxgraph.android.phone2;labelBackgroundColor=none;" vertex="1" parent="1">
          <mxGeometry x="-820" y="10" width="200" height="390" as="geometry" />
        </mxCell>
        <mxCell id="wqMbm9Z1YDFRMYxHK1fr-4" value="" style="verticalLabelPosition=bottom;verticalAlign=top;html=1;shadow=0;dashed=0;strokeWidth=2;shape=mxgraph.android.navigation_bar_3_landscape;labelBackgroundColor=none;" vertex="1" parent="1">
          <mxGeometry x="-810" y="340" width="180" height="20" as="geometry" />
        </mxCell>
        <mxCell id="wqMbm9Z1YDFRMYxHK1fr-5" value="" style="verticalLabelPosition=bottom;verticalAlign=top;html=1;shadow=0;dashed=0;strokeWidth=1;shape=rect;labelBackgroundColor=none;" vertex="1" parent="1">
          <mxGeometry x="-810" y="50" width="180" height="290" as="geometry" />
        </mxCell>
        <mxCell id="wqMbm9Z1YDFRMYxHK1fr-6" value="" style="strokeWidth=1;html=1;shadow=0;dashed=0;shape=mxgraph.android.statusBar;align=center;fontSize=10;labelBackgroundColor=none;" vertex="1" parent="1">
          <mxGeometry x="-810" y="50" width="180" height="15.83" as="geometry" />
        </mxCell>
        <mxCell id="wqMbm9Z1YDFRMYxHK1fr-7" value="&lt;font style=&quot;vertical-align: inherit;&quot;&gt;&lt;font style=&quot;vertical-align: inherit;&quot;&gt;WELCOME&lt;/font&gt;&lt;/font&gt;&lt;div&gt;&lt;font style=&quot;vertical-align: inherit;&quot;&gt;&lt;font style=&quot;vertical-align: inherit;&quot;&gt;&lt;font style=&quot;vertical-align: inherit;&quot;&gt;&lt;font style=&quot;vertical-align: inherit;&quot;&gt;TO THE&amp;nbsp;&lt;/font&gt;&lt;/font&gt;&lt;/font&gt;&lt;/font&gt;&lt;/div&gt;&lt;div&gt;&lt;font style=&quot;vertical-align: inherit;&quot;&gt;&lt;font style=&quot;vertical-align: inherit;&quot;&gt;&lt;font style=&quot;vertical-align: inherit;&quot;&gt;&lt;font style=&quot;vertical-align: inherit;&quot;&gt;&lt;font style=&quot;vertical-align: inherit;&quot;&gt;&lt;font style=&quot;vertical-align: inherit;&quot;&gt;SISTEM&amp;nbsp; SALUD&lt;/font&gt;&lt;/font&gt;&lt;/font&gt;&lt;/font&gt;&lt;/font&gt;&lt;/font&gt;&lt;/div&gt;" style="strokeWidth=1;shadow=0;dashed=0;align=center;html=1;shape=mxgraph.mockup.containers.rrect;rSize=0;fontSize=17;verticalAlign=top;whiteSpace=wrap;spacingTop=32;labelBackgroundColor=none;" vertex="1" parent="1">
          <mxGeometry x="-810" y="120" width="180" height="150" as="geometry" />
        </mxCell>
        <mxCell id="wqMbm9Z1YDFRMYxHK1fr-8" value="&lt;font style=&quot;vertical-align: inherit;&quot;&gt;&lt;font style=&quot;vertical-align: inherit;&quot;&gt;RedSaludPlus&lt;/font&gt;&lt;/font&gt;" style="strokeWidth=1;shadow=0;dashed=0;align=center;html=1;shape=mxgraph.mockup.containers.rrect;rSize=0;fontSize=17;align=left;spacingLeft=8;resizeWidth=1;whiteSpace=wrap;labelBackgroundColor=none;" vertex="1" parent="wqMbm9Z1YDFRMYxHK1fr-7">
          <mxGeometry width="170.52631578947367" height="30" relative="1" as="geometry" />
        </mxCell>
        <mxCell id="wqMbm9Z1YDFRMYxHK1fr-10" value="&lt;font style=&quot;vertical-align: inherit;&quot;&gt;&lt;font style=&quot;vertical-align: inherit;&quot;&gt;INGRESAR&lt;/font&gt;&lt;/font&gt;" style="strokeWidth=1;shadow=0;dashed=0;align=center;html=1;shape=mxgraph.mockup.containers.rrect;rSize=0;fontSize=16;resizable=0;whiteSpace=wrap;labelBackgroundColor=none;" vertex="1" parent="wqMbm9Z1YDFRMYxHK1fr-7">
          <mxGeometry x="0.5" y="1" width="120" height="25" relative="1" as="geometry">
            <mxPoint x="-60" y="-33" as="offset" />
          </mxGeometry>
        </mxCell>
        <mxCell id="wqMbm9Z1YDFRMYxHK1fr-75" value="" style="verticalLabelPosition=bottom;verticalAlign=top;html=1;shadow=0;dashed=0;strokeWidth=1;shape=mxgraph.android.phone2;labelBackgroundColor=none;" vertex="1" parent="1">
          <mxGeometry x="-613" y="10" width="200" height="390" as="geometry" />
        </mxCell>
        <mxCell id="wqMbm9Z1YDFRMYxHK1fr-76" value="" style="strokeWidth=1;shadow=0;dashed=0;align=center;html=1;shape=mxgraph.mockup.forms.rrect;rSize=0;labelBackgroundColor=none;" vertex="1" parent="1">
          <mxGeometry x="-603" y="50" width="180" height="310" as="geometry" />
        </mxCell>
        <mxCell id="wqMbm9Z1YDFRMYxHK1fr-77" value="Sign In" style="strokeWidth=1;shadow=0;dashed=0;align=center;html=1;shape=mxgraph.mockup.forms.anchor;fontSize=12;align=left;resizeWidth=1;spacingLeft=0;labelBackgroundColor=none;" vertex="1" parent="wqMbm9Z1YDFRMYxHK1fr-76">
          <mxGeometry width="90" height="20" relative="1" as="geometry">
            <mxPoint x="10" y="10" as="offset" />
          </mxGeometry>
        </mxCell>
        <mxCell id="wqMbm9Z1YDFRMYxHK1fr-78" value="" style="shape=line;strokeWidth=2;html=1;resizeWidth=1;labelBackgroundColor=none;" vertex="1" parent="wqMbm9Z1YDFRMYxHK1fr-76">
          <mxGeometry width="162" height="10" relative="1" as="geometry">
            <mxPoint x="10" y="30" as="offset" />
          </mxGeometry>
        </mxCell>
        <mxCell id="wqMbm9Z1YDFRMYxHK1fr-79" value="User Name:" style="strokeWidth=1;shadow=0;dashed=0;align=center;html=1;shape=mxgraph.mockup.forms.anchor;fontSize=12;align=left;resizeWidth=1;spacingLeft=0;labelBackgroundColor=none;" vertex="1" parent="wqMbm9Z1YDFRMYxHK1fr-76">
          <mxGeometry width="90" height="20" relative="1" as="geometry">
            <mxPoint x="10" y="40" as="offset" />
          </mxGeometry>
        </mxCell>
        <mxCell id="wqMbm9Z1YDFRMYxHK1fr-80" value="johndoe" style="strokeWidth=1;shadow=0;dashed=0;align=center;html=1;shape=mxgraph.mockup.forms.rrect;rSize=0;align=left;spacingLeft=5;resizeWidth=1;labelBackgroundColor=none;" vertex="1" parent="wqMbm9Z1YDFRMYxHK1fr-76">
          <mxGeometry width="135" height="25" relative="1" as="geometry">
            <mxPoint x="10" y="60" as="offset" />
          </mxGeometry>
        </mxCell>
        <mxCell id="wqMbm9Z1YDFRMYxHK1fr-81" value="Password:" style="strokeWidth=1;shadow=0;dashed=0;align=center;html=1;shape=mxgraph.mockup.forms.anchor;fontSize=12;align=left;resizeWidth=1;spacingLeft=0;labelBackgroundColor=none;" vertex="1" parent="wqMbm9Z1YDFRMYxHK1fr-76">
          <mxGeometry width="90" height="20" relative="1" as="geometry">
            <mxPoint x="10" y="95" as="offset" />
          </mxGeometry>
        </mxCell>
        <mxCell id="wqMbm9Z1YDFRMYxHK1fr-82" value="********" style="strokeWidth=1;shadow=0;dashed=0;align=center;html=1;shape=mxgraph.mockup.forms.rrect;rSize=0;align=left;spacingLeft=5;resizeWidth=1;labelBackgroundColor=none;" vertex="1" parent="wqMbm9Z1YDFRMYxHK1fr-76">
          <mxGeometry width="135" height="25" relative="1" as="geometry">
            <mxPoint x="10" y="115" as="offset" />
          </mxGeometry>
        </mxCell>
        <mxCell id="wqMbm9Z1YDFRMYxHK1fr-83" value="SIGN IN" style="strokeWidth=1;shadow=0;dashed=0;align=center;html=1;shape=mxgraph.mockup.forms.rrect;rSize=5;strokeColor=none;fontSize=16;fontStyle=1;labelBackgroundColor=none;" vertex="1" parent="wqMbm9Z1YDFRMYxHK1fr-76">
          <mxGeometry y="1" width="80" height="30" relative="1" as="geometry">
            <mxPoint x="20" y="-150" as="offset" />
          </mxGeometry>
        </mxCell>
        <mxCell id="wqMbm9Z1YDFRMYxHK1fr-84" value="Forgot Password?" style="strokeWidth=1;shadow=0;dashed=0;align=center;html=1;shape=mxgraph.mockup.forms.anchor;fontSize=12;align=left;spacingLeft=0;fontStyle=4;resizeWidth=1;labelBackgroundColor=none;" vertex="1" parent="wqMbm9Z1YDFRMYxHK1fr-76">
          <mxGeometry y="1" width="135" height="20" relative="1" as="geometry">
            <mxPoint x="10" y="-110" as="offset" />
          </mxGeometry>
        </mxCell>
        <mxCell id="wqMbm9Z1YDFRMYxHK1fr-85" value="" style="shape=line;strokeWidth=2;html=1;resizeWidth=1;labelBackgroundColor=none;" vertex="1" parent="wqMbm9Z1YDFRMYxHK1fr-76">
          <mxGeometry y="1" width="162" height="10" relative="1" as="geometry">
            <mxPoint x="10" y="-90" as="offset" />
          </mxGeometry>
        </mxCell>
        <mxCell id="wqMbm9Z1YDFRMYxHK1fr-86" value="New User" style="strokeWidth=1;shadow=0;dashed=0;align=center;html=1;shape=mxgraph.mockup.forms.anchor;fontSize=12;align=left;spacingLeft=0;resizeWidth=1;labelBackgroundColor=none;" vertex="1" parent="wqMbm9Z1YDFRMYxHK1fr-76">
          <mxGeometry y="1" width="135" height="20" relative="1" as="geometry">
            <mxPoint x="10" y="-70" as="offset" />
          </mxGeometry>
        </mxCell>
        <mxCell id="wqMbm9Z1YDFRMYxHK1fr-87" value="SIGN UP" style="strokeWidth=1;shadow=0;dashed=0;align=center;html=1;shape=mxgraph.mockup.forms.rrect;rSize=5;strokeColor=none;fontSize=16;fontStyle=1;labelBackgroundColor=none;" vertex="1" parent="wqMbm9Z1YDFRMYxHK1fr-76">
          <mxGeometry y="1" width="80" height="30" relative="1" as="geometry">
            <mxPoint x="20" y="-50" as="offset" />
          </mxGeometry>
        </mxCell>
      </root>
    </mxGraphModel>
  </diagram>
</mxfile>
